PathFileType	4	(X/Y/Z)	C:/Users/beibeiliu/ov580/test_trc/capture2\sequence.33_training_dense_left.trc
DataRate	CameraRate	NumFrames	NumMarkers	Units	OrigDataRate	OrigDataStartFrame	OrigNumFrames
120	120	23	19	mm	120	85	336
Frame#	Time	ThumbCMC			ThumbMCP			ThumbIP			ThumbTip			IndexMCP			IndexPIP			IndexTip			MiddleMCP			MiddlePIP			MiddleTip			RingMCP			RingPIP			RingTip			PinkyMCP			PinkyPIP			PinkyTip			BackHand1			BackHand2			BackHand3	
		X0	Y0	Z0	X1	Y1	Z1	X2	Y2	Z2	X3	Y3	Z3	X4	Y4	Z4	X5	Y5	Z5	X6	Y6	Z6	X7	Y7	Z7	X8	Y8	Z8	X9	Y9	Z9	X10	Y10	Z10	X11	Y11	Z11	X12	Y12	Z12	X13	Y13	Z13	X14	Y14	Z14	X15	Y15	Z15	X16	Y16	Z16	X17	Y17	Z17	X18	Y18	Z18	
84	0.7	-116.171	41.9205	-6.82484	-91.0997	36.2181	-29.0172	-78.2345	36.3294	-53.6452	-75.5917	26.137	-75.4283	-140.326	39.7449	-74.6729	-122.712	28.1475	-102.134	-98.1048	19.5824	-107.841	-143	20.7569	-84.7951	-123.62	8.75228	-104.526	-88.4094	1.53316	-96.5952	-139.178	-2.97961	-78.9125	-107.013	-8.12634	-84.2092	-90.3804	-3.73635	-55.8117	-136.269	-18.5191	-67.5473	-107.446	-23.9426	-65.719	-97.4475	-7.06706	-40.6537	-166.614	0.853254	-29.7989	-164.342	1.62854	4.69701	-155.998	33.8852	-12.0237	
85	0.708333	-115.139	40.7855	-2.60944	-93.5423	33.5338	-27.2578	-81.9759	31.9287	-50.4993	-76.9608	25.5369	-74.8638	-139.589	38.7289	-74.8521	-126.444	31.1018	-97.9801	-98.2212	18.0093	-105.213	-144.917	22.5385	-81.0543	-120.6	11.9764	-103.468	-91.0383	2.02004	-95.2525	-140.464	-3.2151	-78.1432	-109.327	-6.58971	-84.0028	-92.236	-7.08267	-52.8038	-137.536	-21.5782	-68.4613	-109.822	-22.3061	-65.7524	-99.2681	-8.98995	-34.1464	-166.14	1.37665	-26.0096	-165.8	4.15192	2.1077	-155.107	34.283	-7.43997	
86	0.716667	-117.012	38.4757	-0.518746	-92.5749	33.5249	-25.1347	-79.112	33.8321	-47.0338	-77.2394	24.2656	-75.9213	-139.753	38.8629	-71.4393	-123.798	34.9075	-99.4382	-95.7441	18.9852	-104.734	-146.746	19.6804	-78.24	-125.21	12.9244	-101.204	-89.0656	-1.04455	-92.2405	-139.906	0.0621863	-76.0305	-108.569	-9.29137	-80.4626	-93.8755	-8.27443	-54.3304	-139.863	-17.4295	-65.2367	-110.174	-18.2582	-64.1854	-101.262	-11.5011	-35.3509	-166.017	1.75901	-23.42	-167.742	5.45854	2.71114	-156.42	35.6717	-7.54324	
87	0.725	-116.342	39.003	0.536619	-91.2523	33.9827	-23.677	-82.9467	30.3028	-47.744	-75.4222	24.9691	-71.9321	-140.607	40.1718	-72.9076	-126.037	33.7997	-97.4063	-97.6081	20.0179	-104.487	-145.8	23.7408	-80.1787	-123.804	15.3867	-101.429	-93.2729	2.423	-93.6188	-142.583	-2.33911	-75.3439	-112.045	-7.60779	-81.7757	-94.7184	-6.09392	-51.9206	-141.475	-17.7094	-63.6417	-110.574	-22.0999	-62.7521	-103.008	-11.7549	-35.3489	-169.004	2.57026	-23.785	-168.807	2.71833	8.09204	-157.629	34.231	-6.65176	
88	0.733333	-117.66	39.0962	-0.834648	-94.2458	32.7607	-21.9516	-80.0276	32.6546	-49.8035	-79.4738	20.8997	-72.7614	-141.363	39.6982	-69.1538	-123.461	34.8057	-98.3293	-101.12	19.147	-104.031	-147.193	19.9075	-81.1702	-123.286	11.4778	-100.675	-93.7694	3.04729	-93.9527	-144.112	-3.08207	-72.8154	-114.86	-7.85947	-81.6862	-96.0263	-8.24383	-53.7868	-142.857	-17.5515	-63.6344	-114.395	-21.4902	-64.6829	-103.082	-14.3632	-35.736	-169.251	4.63747	-21.7594	-170.794	2.01374	6.54508	-157.105	34.6473	-9.92418	
89	0.741667	-119.794	37.3691	-0.878835	-96.5223	32.1636	-22.2798	-84.6951	29.4664	-48.2581	-79.3161	22.7098	-68.3012	-142.271	38.8388	-70.0466	-125.124	33.117	-97.0376	-97.9003	21.6767	-104.433	-148.555	19.527	-80.6358	-124.091	13.3829	-100.43	-93.8099	0.425247	-92.5131	-143.814	-0.634896	-74.3843	-114.472	-10.1117	-81.87	-96.4935	-6.27758	-54.3407	-145.407	-21.6625	-61.8646	-114.239	-22.1486	-63.3757	-105.43	-8.95877	-35.2279	-170.408	0.288247	-22.6062	-172.497	-0.41163	7.28302	-159.839	33.9387	-9.01108	
90	0.75	-119.644	39.1169	2.0624	-98.3771	30.3307	-22.2589	-82.7669	30.4602	-49.6604	-82.5483	20.5036	-71.6661	-145.097	37.1365	-68.5015	-130.61	32.6883	-95.4185	-100.281	18.4234	-102.506	-150.058	19.8629	-75.5304	-129.467	11.8508	-99.3782	-94.173	-0.341653	-90.8887	-146.163	-0.226379	-71.8553	-115.213	-9.62352	-81.6495	-96.504	-8.80124	-49.5042	-143.351	-22.819	-64.7313	-116.105	-21.591	-64.9624	-105.374	-11.171	-37.765	-168.888	4.14077	-22.1182	-171.785	-1.55917	5.11189	-161.236	35.0306	-6.82783	
91	0.758333	-120.212	38.3997	1.5417	-96.0416	31.6621	-21.3435	-83.4502	29.5921	-45.804	-82.1792	20.7173	-67.9995	-143.676	38.9311	-72.6635	-130.094	30.2868	-95.0475	-102.516	17.8344	-101.698	-150.649	21.5382	-74.8964	-125.869	11.0045	-100.053	-95.3383	-1.73391	-91.2114	-145.005	-2.07554	-76.706	-117.682	-12.8503	-81.1508	-98.769	-12.0593	-52.5353	-147.1	-20.721	-60.2554	-116.122	-25.0709	-62.3917	-105.095	-13.9285	-32.8064	-171.14	3.73257	-23.1743	-173.517	1.15314	4.9041	-160.418	31.6383	-8.58951	
92	0.766667	-120.887	35.5016	2.86087	-99.7409	27.1097	-19.2463	-85.9783	28.2009	-47.5689	-85.5829	17.9801	-69.2556	-145.108	35.1243	-67.7004	-129.982	28.2919	-95.7256	-106.157	14.6681	-100.707	-152.94	15.9867	-75.88	-130.048	7.01804	-98.3571	-95.1905	-2.02151	-90.9834	-147.518	-5.94578	-74.1134	-116.921	-14.301	-79.6079	-98.6691	-11.4483	-54.6539	-147.484	-24.0342	-62.2233	-117.491	-25.946	-63.0858	-106.899	-12.8506	-33.5527	-172.461	-1.35937	-21.9204	-173.223	0.527282	10.1274	-162.055	26.6773	-4.20268	
93	0.775	-122.807	33.2805	2.65614	-100.078	27.033	-22.9784	-88.3513	25.7313	-44.001	-81.9091	20.7751	-68.4094	-146.061	37.5926	-67.0454	-131.978	29.6102	-94.5256	-102.813	15.0428	-101.626	-151.62	17.401	-79.1266	-131.649	8.08472	-98.8246	-98.9615	-5.82163	-91.2069	-146.808	-7.71934	-75.4622	-119.808	-14.6682	-79.8448	-99.2464	-9.90949	-51.507	-147.724	-21.3924	-62.0524	-117.753	-25.0154	-62.9152	-108.733	-14.0593	-32.6513	-173.374	2.34292	-21.9702	-172.305	0.977698	7.94721	-163.515	28.8287	-4.93327	
94	0.783333	-125.684	31.1706	3.0425	-97.732	28.1344	-20.5952	-86.622	26.0568	-48.0475	-85.0091	17.4872	-67.5699	-144.935	36.0011	-70.9731	-132.211	25.0129	-94.4184	-105.845	13.557	-100.72	-151.78	17.4723	-79.0138	-128.9	7.82783	-99.3184	-97.0112	-7.91022	-90.3746	-147.357	-7.33191	-74.0104	-119.659	-13.6777	-79.6676	-99.4679	-14.3221	-48.5168	-147.229	-22.8226	-61.5426	-119.783	-31.5186	-61.9612	-106.989	-17.4671	-31.8127	-171.533	0.548333	-20.6108	-175.311	-1.36269	8.1856	-164.062	25.574	-5.73338	
95	0.791667	-125.609	31.1025	2.01153	-98.9684	26.9986	-18.8398	-90.6654	24.0132	-47.6548	-82.8053	17.386	-68.0291	-146.628	33.5326	-72.4597	-131.107	23.0019	-95.7592	-102.771	8.87271	-99.9015	-153.756	12.3668	-78.5069	-133.467	6.51424	-98.4795	-98.8729	-8.9637	-90.4241	-147.806	-10.4426	-73.6539	-121.231	-17.3801	-79.1546	-101.438	-16.1621	-51.7467	-150.21	-28.1054	-59.7466	-116.385	-29.6182	-59.0693	-108.396	-15.9293	-33.084	-175.05	-2.60925	-23.749	-173.099	-2.26724	8.81085	-163.769	30.1295	-6.41248	
96	0.8	-124.797	31.5102	0.151325	-101.863	25.7241	-22.7332	-86.9198	25.466	-50.2681	-86.456	15.2211	-70.8792	-146.753	33.5314	-69.9991	-130.642	27.422	-96.9421	-102.954	9.78983	-101.762	-153.705	12.0062	-74.906	-131.802	2.2419	-98.8338	-100.624	-8.04669	-92.6129	-147.622	-7.05009	-73.9457	-117.887	-16.0596	-78.9115	-101.636	-15.7861	-50.5138	-147.23	-25.7884	-62.9394	-117.897	-28.447	-60.4866	-108.775	-20.3529	-32.254	-174.558	-3.85095	-23.1717	-177.151	-4.28373	6.37062	-161.77	28.7492	-4.09014	
97	0.808333	-124.984	29.8301	0.807046	-100.456	25.2057	-21.5218	-90.2222	22.6241	-45.7924	-86.2496	14.2067	-73.4413	-147.452	34.7129	-67.7496	-129.95	26.1912	-97.8524	-102.318	11.2467	-102.403	-154.165	9.79552	-75.7248	-130.016	2.85345	-99.5308	-98.414	-6.4533	-92.1903	-147.934	-8.61052	-73.6705	-119.176	-20.1296	-78.8904	-101.148	-17.4673	-50.2341	-147.999	-26.9816	-62.4569	-117.207	-28.2611	-61.6858	-107.245	-19.1987	-31.9936	-174.23	-0.845333	-22.9795	-174.521	-6.04298	10.5255	-163.188	25.5229	-8.00873	
98	0.816667	-123.397	32.5717	1.71922	-97.2652	26.5805	-20.338	-87.9401	23.5256	-49.5964	-87.9394	13.0724	-70.5081	-147.34	30.7864	-68.1152	-130.019	24.0342	-96.6501	-104.752	10.446	-102.448	-153.225	10.2881	-76.3709	-133.305	4.16391	-98.4645	-96.7591	-8.26748	-90.6163	-147.704	-11.1113	-73.4162	-120.589	-21.2389	-79.2973	-101.162	-17.0501	-52.7358	-147.278	-27.6021	-61.2684	-117.826	-28.9618	-61.4997	-106.667	-19.4335	-31.0939	-173.259	-3.6698	-23.4119	-174.49	-7.28874	10.3384	-161.296	26.5822	-3.34155	
99	0.825	-124.944	29.6019	-2.05733	-99.2193	25.1208	-23.5661	-86.4904	23.8301	-46.4402	-84.3838	13.4063	-69.1726	-146.635	29.1025	-71.0932	-132.853	23.4406	-95.3043	-103.33	9.15159	-101.439	-153.404	9.40359	-75.3491	-129.392	2.68172	-98.9975	-95.2296	-7.46404	-90.625	-146.61	-12.7947	-74.5767	-118.489	-17.7905	-79.7054	-100.022	-14.2216	-52.4034	-148.264	-26.5446	-59.3477	-118.476	-31.1198	-62.7796	-107.107	-20.5446	-35.4567	-174.596	-6.04879	-21.4831	-173.683	-5.84054	7.75651	-164.768	24.1883	-3.45299	
100	0.833333	-124.244	28.4789	3.5309	-97.1954	25.8379	-22.5431	-86.3549	22.8947	-45.2066	-82.3121	14.0155	-69.2997	-145.477	29.7002	-68.86	-131.825	22.0821	-93.7673	-101.307	6.58127	-100.365	-151.557	8.5474	-79.5727	-130.158	1.93447	-98.8315	-94.4319	-5.59326	-90.4061	-147.402	-11.0022	-71.7451	-118.367	-17.1857	-80.0266	-98.2764	-15.6233	-50.0079	-145.793	-31.6806	-60.7597	-116.687	-30.2593	-62.6182	-105.012	-20.1778	-33.9552	-172.963	-6.95931	-22.1765	-171.838	-5.45085	11.6971	-161.085	25.0534	-4.91299	
101	0.841667	-122.855	30.3521	-1.84447	-99.5778	22.3202	-20.7642	-88.3025	19.6237	-45.7868	-83.2708	11.828	-68.6899	-144.546	29.4862	-69.6438	-130.252	23.0959	-93.4832	-99.4454	4.96495	-99.7634	-150.964	9.27017	-75.0097	-126.232	-0.74595	-98.2909	-96.206	-10.2112	-89.8115	-145.775	-10.9694	-72.991	-113.961	-20.3206	-77.8511	-97.7505	-16.5544	-50.5673	-144.857	-31.2866	-60.7098	-116.587	-30.091	-62.5095	-105.151	-20.577	-30.9693	-172.659	-6.34542	-21.3227	-171.437	-8.35451	6.96982	-162.515	26.0047	-8.33234	
102	0.85	-121.604	30.9162	-1.38581	-96.7635	24.2275	-23.9932	-85.9542	19.6628	-45.769	-81.9017	10.23	-69.3472	-143.478	30.4342	-72.5557	-127.558	22.4996	-95.0407	-102.353	6.1021	-99.398	-150.3	7.06559	-77.7274	-126.098	3.512	-98.5097	-94.1403	-9.13385	-89.8462	-145.082	-14.3376	-71.7024	-113.568	-18.3613	-77.5228	-97.2571	-18.0107	-48.6795	-144.23	-29.1229	-58.5391	-113.814	-28.6073	-60.1247	-105.472	-21.3499	-29.2052	-171.269	-8.07801	-22.1437	-169.957	-4.91385	7.20466	-162.438	22.7523	-8.0009	
103	0.858333	-121.973	26.8297	-0.668816	-97.7469	22.4224	-21.2178	-83.0617	20.8446	-45.2389	-80.4746	11.1549	-70.0318	-143.963	27.5368	-70.5142	-126.899	19.7331	-95.2177	-98.4003	6.57301	-99.019	-148.835	7.67244	-76.7533	-124.237	-1.01197	-98.0036	-95.029	-8.74336	-90.6057	-143.115	-11.3835	-72.0792	-113.709	-18.3111	-77.714	-97.26	-16.5798	-46.5565	-142.524	-29.6675	-60.6379	-112.649	-28.806	-59.4948	-104.395	-18.8596	-28.6454	-169.113	-7.95745	-22.3	-169.427	-6.06296	7.23733	-160.554	21.6729	-7.27609	
104	0.866667	-121.545	26.9343	2.12844	-97.7538	21.4236	-22.7747	-82.6234	20.3987	-46.0629	-80.6074	10.6548	-72.4773	-142.938	27.6738	-70.42	-125.366	17.2785	-95.114	-97.0334	2.69079	-98.1679	-148.325	4.80346	-76.1154	-125.253	-1.5995	-97.6283	-90.305	-10.2552	-86.9685	-141.305	-14.833	-74.4155	-114.011	-19.8596	-78.4717	-96.2175	-16.0072	-47.4968	-143.514	-30.6322	-57.2354	-112.894	-30.9952	-60.0263	-102.632	-23.1112	-29.6207	-170.862	-9.61738	-22.0756	-171.916	-9.73634	12.1799	-157.753	23.2947	-4.36951	
105	0.875	-122.04	26.749	-1.00675	-96.4808	21.6018	-20.6673	-86.1962	18.5362	-46.4734	-80.554	12.2682	-65.6758	-140.89	29.1799	-69.6901	-128.051	17.7649	-93.0639	-95.9847	5.05412	-99.2731	-146.823	9.4463	-75.7856	-126.096	-0.624849	-97.2234	-91.1863	-9.55415	-89.3618	-143.587	-13.4854	-69.132	-110.599	-19.0379	-76.9289	-94.4931	-16.5744	-45.4469	-141.742	-33.9993	-58.7998	-112.076	-34.2668	-59.9026	-102.725	-20.6207	-33.5456	-168.134	-5.55344	-20.4441	-169.853	-6.34341	11.76	-158.442	19.7264	-8.32852	
106	0.883333	-119.005	30.2315	0.659651	-93.4854	23.9477	-18.9509	-83.9877	19.601	-46.7491	-81.2437	9.38416	-71.5175	-140.95	27.3296	-72.8695	-125.689	18.7321	-95.5419	-98.0563	4.46641	-98.8937	-146.989	5.98544	-79.0363	-125.162	-2.26672	-96.8643	-90.85	-14.221	-88.3982	-142.478	-14.2164	-69.6101	-112.836	-23.8605	-76.1216	-95.2527	-20.9366	-47.9663	-138.708	-31.6674	-60.6841	-110.604	-36.9745	-57.4627	-103.226	-21.7566	-26.154	-167.933	-9.49497	-22.3092	-169.13	-7.81628	12.4415	-157.209	23.6607	-5.24814	
